<svg xmlns="http://www.w3.org/2000/svg" viewBox="0 0 29.45 14.02"><defs><style>.cls-1{font-size:12px;font-family:Roboto-Bold, Roboto;font-weight:700;}.cls-1,.cls-2{stroke:#ff9429;stroke-miterlimit:10;stroke-width:0.5px;}</style></defs><title>Asset 1GS</title><g id="Layer_2" data-name="Layer 2"><g id="Layer_1-2" data-name="Layer 1"><text class="cls-1" transform="translate(0.25 10.52)">GS</text><path class="cls-2" d="M16.5,3.59a1.41,1.41,0,0,1,1.41-1.41h5.64A1.41,1.41,0,0,1,25,3.59V9.24a1.41,1.41,0,0,1-1.41,1.41H17.91A1.41,1.41,0,0,1,16.5,9.24ZM28.82,3a.72.72,0,0,1,.38.62V9.24a.72.72,0,0,1-.38.62.69.69,0,0,1-.72,0L26,8.41l-.31-.21V4.63L26,4.42,28.1,3a.69.69,0,0,1,.72,0Z"/></g></g></svg>